<?xml version="1.0" encoding="UTF-8" standalone="no"?>
<!-- This is a Stata 18.0 generated SVG file (http://www.stata.com) -->

<svg version="1.1" width="7.500in" height="4.500in" viewBox="0 0 5400 3240" xmlns="http://www.w3.org/2000/svg" xmlns:xlink="http://www.w3.org/1999/xlink">
	<desc>Stata Graph - Graph</desc>
	<rect x="0" y="0" width="5400" height="3240" style="fill:#FFFFFF;stroke:none"/>
	<rect x="0.00" y="0.00" width="5400.00" height="3240.00" style="fill:#FFFFFF"/>
	<rect x="3.24" y="3.24" width="5393.52" height="3233.52" style="fill:none;stroke:#FFFFFF;stroke-width:6.48"/>
	<rect x="557.72" y="113.40" width="2829.43" height="2653.26" style="fill:#FFFFFF"/>
	<rect x="560.96" y="116.64" width="2822.95" height="2646.78" style="fill:none;stroke:#FFFFFF;stroke-width:6.48"/>
	<line x1="557.72" y1="2766.66" x2="622.52" y2="2766.66" style="stroke:#F0F0F0;stroke-width:9.72"/>
	<line x1="654.92" y1="2766.66" x2="719.72" y2="2766.66" style="stroke:#F0F0F0;stroke-width:9.72"/>
	<line x1="752.12" y1="2766.66" x2="816.92" y2="2766.66" style="stroke:#F0F0F0;stroke-width:9.72"/>
	<line x1="849.32" y1="2766.66" x2="914.12" y2="2766.66" style="stroke:#F0F0F0;stroke-width:9.72"/>
	<line x1="946.52" y1="2766.66" x2="1011.32" y2="2766.66" style="stroke:#F0F0F0;stroke-width:9.72"/>
	<line x1="1043.72" y1="2766.66" x2="1108.52" y2="2766.66" style="stroke:#F0F0F0;stroke-width:9.72"/>
	<line x1="1140.92" y1="2766.66" x2="1205.72" y2="2766.66" style="stroke:#F0F0F0;stroke-width:9.72"/>
	<line x1="1238.12" y1="2766.66" x2="1302.92" y2="2766.66" style="stroke:#F0F0F0;stroke-width:9.72"/>
	<line x1="1335.32" y1="2766.66" x2="1400.12" y2="2766.66" style="stroke:#F0F0F0;stroke-width:9.72"/>
	<line x1="1432.52" y1="2766.66" x2="1497.32" y2="2766.66" style="stroke:#F0F0F0;stroke-width:9.72"/>
	<line x1="1529.72" y1="2766.66" x2="1594.52" y2="2766.66" style="stroke:#F0F0F0;stroke-width:9.72"/>
	<line x1="1626.92" y1="2766.66" x2="1691.72" y2="2766.66" style="stroke:#F0F0F0;stroke-width:9.72"/>
	<line x1="1724.12" y1="2766.66" x2="1788.92" y2="2766.66" style="stroke:#F0F0F0;stroke-width:9.72"/>
	<line x1="1821.32" y1="2766.66" x2="1886.12" y2="2766.66" style="stroke:#F0F0F0;stroke-width:9.72"/>
	<line x1="1918.52" y1="2766.66" x2="1983.32" y2="2766.66" style="stroke:#F0F0F0;stroke-width:9.72"/>
	<line x1="2015.72" y1="2766.66" x2="2080.52" y2="2766.66" style="stroke:#F0F0F0;stroke-width:9.72"/>
	<line x1="2112.92" y1="2766.66" x2="2177.72" y2="2766.66" style="stroke:#F0F0F0;stroke-width:9.72"/>
	<line x1="2210.12" y1="2766.66" x2="2274.92" y2="2766.66" style="stroke:#F0F0F0;stroke-width:9.72"/>
	<line x1="2307.32" y1="2766.66" x2="2372.12" y2="2766.66" style="stroke:#F0F0F0;stroke-width:9.72"/>
	<line x1="2404.52" y1="2766.66" x2="2469.32" y2="2766.66" style="stroke:#F0F0F0;stroke-width:9.72"/>
	<line x1="2501.72" y1="2766.66" x2="2566.52" y2="2766.66" style="stroke:#F0F0F0;stroke-width:9.72"/>
	<line x1="2598.92" y1="2766.66" x2="2663.72" y2="2766.66" style="stroke:#F0F0F0;stroke-width:9.72"/>
	<line x1="2696.12" y1="2766.66" x2="2760.92" y2="2766.66" style="stroke:#F0F0F0;stroke-width:9.72"/>
	<line x1="2793.32" y1="2766.66" x2="2858.12" y2="2766.66" style="stroke:#F0F0F0;stroke-width:9.72"/>
	<line x1="2890.52" y1="2766.66" x2="2955.32" y2="2766.66" style="stroke:#F0F0F0;stroke-width:9.72"/>
	<line x1="2987.72" y1="2766.66" x2="3052.52" y2="2766.66" style="stroke:#F0F0F0;stroke-width:9.72"/>
	<line x1="3084.92" y1="2766.66" x2="3149.72" y2="2766.66" style="stroke:#F0F0F0;stroke-width:9.72"/>
	<line x1="3182.12" y1="2766.66" x2="3246.92" y2="2766.66" style="stroke:#F0F0F0;stroke-width:9.72"/>
	<line x1="3279.32" y1="2766.66" x2="3344.12" y2="2766.66" style="stroke:#F0F0F0;stroke-width:9.72"/>
	<line x1="3376.52" y1="2766.66" x2="3387.15" y2="2766.66" style="stroke:#F0F0F0;stroke-width:9.72"/>
	<line x1="557.72" y1="1906.03" x2="622.52" y2="1906.03" style="stroke:#F0F0F0;stroke-width:9.72"/>
	<line x1="654.92" y1="1906.03" x2="719.72" y2="1906.03" style="stroke:#F0F0F0;stroke-width:9.72"/>
	<line x1="752.12" y1="1906.03" x2="816.92" y2="1906.03" style="stroke:#F0F0F0;stroke-width:9.72"/>
	<line x1="849.32" y1="1906.03" x2="914.12" y2="1906.03" style="stroke:#F0F0F0;stroke-width:9.72"/>
	<line x1="946.52" y1="1906.03" x2="1011.32" y2="1906.03" style="stroke:#F0F0F0;stroke-width:9.72"/>
	<line x1="1043.72" y1="1906.03" x2="1108.52" y2="1906.03" style="stroke:#F0F0F0;stroke-width:9.72"/>
	<line x1="1140.92" y1="1906.03" x2="1205.72" y2="1906.03" style="stroke:#F0F0F0;stroke-width:9.72"/>
	<line x1="1238.12" y1="1906.03" x2="1302.92" y2="1906.03" style="stroke:#F0F0F0;stroke-width:9.72"/>
	<line x1="1335.32" y1="1906.03" x2="1400.12" y2="1906.03" style="stroke:#F0F0F0;stroke-width:9.72"/>
	<line x1="1432.52" y1="1906.03" x2="1497.32" y2="1906.03" style="stroke:#F0F0F0;stroke-width:9.72"/>
	<line x1="1529.72" y1="1906.03" x2="1594.52" y2="1906.03" style="stroke:#F0F0F0;stroke-width:9.72"/>
	<line x1="1626.92" y1="1906.03" x2="1691.72" y2="1906.03" style="stroke:#F0F0F0;stroke-width:9.72"/>
	<line x1="1724.12" y1="1906.03" x2="1788.92" y2="1906.03" style="stroke:#F0F0F0;stroke-width:9.72"/>
	<line x1="1821.32" y1="1906.03" x2="1886.12" y2="1906.03" style="stroke:#F0F0F0;stroke-width:9.72"/>
	<line x1="1918.52" y1="1906.03" x2="1983.32" y2="1906.03" style="stroke:#F0F0F0;stroke-width:9.72"/>
	<line x1="2015.72" y1="1906.03" x2="2080.52" y2="1906.03" style="stroke:#F0F0F0;stroke-width:9.72"/>
	<line x1="2112.92" y1="1906.03" x2="2177.72" y2="1906.03" style="stroke:#F0F0F0;stroke-width:9.72"/>
	<line x1="2210.12" y1="1906.03" x2="2274.92" y2="1906.03" style="stroke:#F0F0F0;stroke-width:9.72"/>
	<line x1="2307.32" y1="1906.03" x2="2372.12" y2="1906.03" style="stroke:#F0F0F0;stroke-width:9.72"/>
	<line x1="2404.52" y1="1906.03" x2="2469.32" y2="1906.03" style="stroke:#F0F0F0;stroke-width:9.72"/>
	<line x1="2501.72" y1="1906.03" x2="2566.52" y2="1906.03" style="stroke:#F0F0F0;stroke-width:9.72"/>
	<line x1="2598.92" y1="1906.03" x2="2663.72" y2="1906.03" style="stroke:#F0F0F0;stroke-width:9.72"/>
	<line x1="2696.12" y1="1906.03" x2="2760.92" y2="1906.03" style="stroke:#F0F0F0;stroke-width:9.72"/>
	<line x1="2793.32" y1="1906.03" x2="2858.12" y2="1906.03" style="stroke:#F0F0F0;stroke-width:9.72"/>
	<line x1="2890.52" y1="1906.03" x2="2955.32" y2="1906.03" style="stroke:#F0F0F0;stroke-width:9.72"/>
	<line x1="2987.72" y1="1906.03" x2="3052.52" y2="1906.03" style="stroke:#F0F0F0;stroke-width:9.72"/>
	<line x1="3084.92" y1="1906.03" x2="3149.72" y2="1906.03" style="stroke:#F0F0F0;stroke-width:9.72"/>
	<line x1="3182.12" y1="1906.03" x2="3246.92" y2="1906.03" style="stroke:#F0F0F0;stroke-width:9.72"/>
	<line x1="3279.32" y1="1906.03" x2="3344.12" y2="1906.03" style="stroke:#F0F0F0;stroke-width:9.72"/>
	<line x1="3376.52" y1="1906.03" x2="3387.15" y2="1906.03" style="stroke:#F0F0F0;stroke-width:9.72"/>
	<line x1="557.72" y1="1045.41" x2="622.52" y2="1045.41" style="stroke:#F0F0F0;stroke-width:9.72"/>
	<line x1="654.92" y1="1045.41" x2="719.72" y2="1045.41" style="stroke:#F0F0F0;stroke-width:9.72"/>
	<line x1="752.12" y1="1045.41" x2="816.92" y2="1045.41" style="stroke:#F0F0F0;stroke-width:9.72"/>
	<line x1="849.32" y1="1045.41" x2="914.12" y2="1045.41" style="stroke:#F0F0F0;stroke-width:9.72"/>
	<line x1="946.52" y1="1045.41" x2="1011.32" y2="1045.41" style="stroke:#F0F0F0;stroke-width:9.72"/>
	<line x1="1043.72" y1="1045.41" x2="1108.52" y2="1045.41" style="stroke:#F0F0F0;stroke-width:9.72"/>
	<line x1="1140.92" y1="1045.41" x2="1205.72" y2="1045.41" style="stroke:#F0F0F0;stroke-width:9.72"/>
	<line x1="1238.12" y1="1045.41" x2="1302.92" y2="1045.41" style="stroke:#F0F0F0;stroke-width:9.72"/>
	<line x1="1335.32" y1="1045.41" x2="1400.12" y2="1045.41" style="stroke:#F0F0F0;stroke-width:9.72"/>
	<line x1="1432.52" y1="1045.41" x2="1497.32" y2="1045.41" style="stroke:#F0F0F0;stroke-width:9.72"/>
	<line x1="1529.72" y1="1045.41" x2="1594.52" y2="1045.41" style="stroke:#F0F0F0;stroke-width:9.72"/>
	<line x1="1626.92" y1="1045.41" x2="1691.72" y2="1045.41" style="stroke:#F0F0F0;stroke-width:9.72"/>
	<line x1="1724.12" y1="1045.41" x2="1788.92" y2="1045.41" style="stroke:#F0F0F0;stroke-width:9.72"/>
	<line x1="1821.32" y1="1045.41" x2="1886.12" y2="1045.41" style="stroke:#F0F0F0;stroke-width:9.72"/>
	<line x1="1918.52" y1="1045.41" x2="1983.32" y2="1045.41" style="stroke:#F0F0F0;stroke-width:9.72"/>
	<line x1="2015.72" y1="1045.41" x2="2080.52" y2="1045.41" style="stroke:#F0F0F0;stroke-width:9.72"/>
	<line x1="2112.92" y1="1045.41" x2="2177.72" y2="1045.41" style="stroke:#F0F0F0;stroke-width:9.72"/>
	<line x1="2210.12" y1="1045.41" x2="2274.92" y2="1045.41" style="stroke:#F0F0F0;stroke-width:9.72"/>
	<line x1="2307.32" y1="1045.41" x2="2372.12" y2="1045.41" style="stroke:#F0F0F0;stroke-width:9.72"/>
	<line x1="2404.52" y1="1045.41" x2="2469.32" y2="1045.41" style="stroke:#F0F0F0;stroke-width:9.72"/>
	<line x1="2501.72" y1="1045.41" x2="2566.52" y2="1045.41" style="stroke:#F0F0F0;stroke-width:9.72"/>
	<line x1="2598.92" y1="1045.41" x2="2663.72" y2="1045.41" style="stroke:#F0F0F0;stroke-width:9.72"/>
	<line x1="2696.12" y1="1045.41" x2="2760.92" y2="1045.41" style="stroke:#F0F0F0;stroke-width:9.72"/>
	<line x1="2793.32" y1="1045.41" x2="2858.12" y2="1045.41" style="stroke:#F0F0F0;stroke-width:9.72"/>
	<line x1="2890.52" y1="1045.41" x2="2955.32" y2="1045.41" style="stroke:#F0F0F0;stroke-width:9.72"/>
	<line x1="2987.72" y1="1045.41" x2="3052.52" y2="1045.41" style="stroke:#F0F0F0;stroke-width:9.72"/>
	<line x1="3084.92" y1="1045.41" x2="3149.72" y2="1045.41" style="stroke:#F0F0F0;stroke-width:9.72"/>
	<line x1="3182.12" y1="1045.41" x2="3246.92" y2="1045.41" style="stroke:#F0F0F0;stroke-width:9.72"/>
	<line x1="3279.32" y1="1045.41" x2="3344.12" y2="1045.41" style="stroke:#F0F0F0;stroke-width:9.72"/>
	<line x1="3376.52" y1="1045.41" x2="3387.15" y2="1045.41" style="stroke:#F0F0F0;stroke-width:9.72"/>
	<line x1="557.72" y1="184.61" x2="622.52" y2="184.61" style="stroke:#F0F0F0;stroke-width:9.72"/>
	<line x1="654.92" y1="184.61" x2="719.72" y2="184.61" style="stroke:#F0F0F0;stroke-width:9.72"/>
	<line x1="752.12" y1="184.61" x2="816.92" y2="184.61" style="stroke:#F0F0F0;stroke-width:9.72"/>
	<line x1="849.32" y1="184.61" x2="914.12" y2="184.61" style="stroke:#F0F0F0;stroke-width:9.72"/>
	<line x1="946.52" y1="184.61" x2="1011.32" y2="184.61" style="stroke:#F0F0F0;stroke-width:9.72"/>
	<line x1="1043.72" y1="184.61" x2="1108.52" y2="184.61" style="stroke:#F0F0F0;stroke-width:9.72"/>
	<line x1="1140.92" y1="184.61" x2="1205.72" y2="184.61" style="stroke:#F0F0F0;stroke-width:9.72"/>
	<line x1="1238.12" y1="184.61" x2="1302.92" y2="184.61" style="stroke:#F0F0F0;stroke-width:9.72"/>
	<line x1="1335.32" y1="184.61" x2="1400.12" y2="184.61" style="stroke:#F0F0F0;stroke-width:9.72"/>
	<line x1="1432.52" y1="184.61" x2="1497.32" y2="184.61" style="stroke:#F0F0F0;stroke-width:9.72"/>
	<line x1="1529.72" y1="184.61" x2="1594.52" y2="184.61" style="stroke:#F0F0F0;stroke-width:9.72"/>
	<line x1="1626.92" y1="184.61" x2="1691.72" y2="184.61" style="stroke:#F0F0F0;stroke-width:9.72"/>
	<line x1="1724.12" y1="184.61" x2="1788.92" y2="184.61" style="stroke:#F0F0F0;stroke-width:9.72"/>
	<line x1="1821.32" y1="184.61" x2="1886.12" y2="184.61" style="stroke:#F0F0F0;stroke-width:9.72"/>
	<line x1="1918.52" y1="184.61" x2="1983.32" y2="184.61" style="stroke:#F0F0F0;stroke-width:9.72"/>
	<line x1="2015.72" y1="184.61" x2="2080.52" y2="184.61" style="stroke:#F0F0F0;stroke-width:9.72"/>
	<line x1="2112.92" y1="184.61" x2="2177.72" y2="184.61" style="stroke:#F0F0F0;stroke-width:9.72"/>
	<line x1="2210.12" y1="184.61" x2="2274.92" y2="184.61" style="stroke:#F0F0F0;stroke-width:9.72"/>
	<line x1="2307.32" y1="184.61" x2="2372.12" y2="184.61" style="stroke:#F0F0F0;stroke-width:9.72"/>
	<line x1="2404.52" y1="184.61" x2="2469.32" y2="184.61" style="stroke:#F0F0F0;stroke-width:9.72"/>
	<line x1="2501.72" y1="184.61" x2="2566.52" y2="184.61" style="stroke:#F0F0F0;stroke-width:9.72"/>
	<line x1="2598.92" y1="184.61" x2="2663.72" y2="184.61" style="stroke:#F0F0F0;stroke-width:9.72"/>
	<line x1="2696.12" y1="184.61" x2="2760.92" y2="184.61" style="stroke:#F0F0F0;stroke-width:9.72"/>
	<line x1="2793.32" y1="184.61" x2="2858.12" y2="184.61" style="stroke:#F0F0F0;stroke-width:9.72"/>
	<line x1="2890.52" y1="184.61" x2="2955.32" y2="184.61" style="stroke:#F0F0F0;stroke-width:9.72"/>
	<line x1="2987.72" y1="184.61" x2="3052.52" y2="184.61" style="stroke:#F0F0F0;stroke-width:9.72"/>
	<line x1="3084.92" y1="184.61" x2="3149.72" y2="184.61" style="stroke:#F0F0F0;stroke-width:9.72"/>
	<line x1="3182.12" y1="184.61" x2="3246.92" y2="184.61" style="stroke:#F0F0F0;stroke-width:9.72"/>
	<line x1="3279.32" y1="184.61" x2="3344.12" y2="184.61" style="stroke:#F0F0F0;stroke-width:9.72"/>
	<line x1="3376.52" y1="184.61" x2="3387.15" y2="184.61" style="stroke:#F0F0F0;stroke-width:9.72"/>
	<line x1="709.43" y1="2766.66" x2="709.43" y2="2701.86" style="stroke:#F0F0F0;stroke-width:9.72"/>
	<line x1="709.43" y1="2669.46" x2="709.43" y2="2604.66" style="stroke:#F0F0F0;stroke-width:9.72"/>
	<line x1="709.43" y1="2572.26" x2="709.43" y2="2507.46" style="stroke:#F0F0F0;stroke-width:9.72"/>
	<line x1="709.43" y1="2475.06" x2="709.43" y2="2410.26" style="stroke:#F0F0F0;stroke-width:9.72"/>
	<line x1="709.43" y1="2377.86" x2="709.43" y2="2313.06" style="stroke:#F0F0F0;stroke-width:9.72"/>
	<line x1="709.43" y1="2280.66" x2="709.43" y2="2215.86" style="stroke:#F0F0F0;stroke-width:9.72"/>
	<line x1="709.43" y1="2183.46" x2="709.43" y2="2118.66" style="stroke:#F0F0F0;stroke-width:9.72"/>
	<line x1="709.43" y1="2086.26" x2="709.43" y2="2021.46" style="stroke:#F0F0F0;stroke-width:9.72"/>
	<line x1="709.43" y1="1989.06" x2="709.43" y2="1924.26" style="stroke:#F0F0F0;stroke-width:9.72"/>
	<line x1="709.43" y1="1891.86" x2="709.43" y2="1827.06" style="stroke:#F0F0F0;stroke-width:9.72"/>
	<line x1="709.43" y1="1794.66" x2="709.43" y2="1729.86" style="stroke:#F0F0F0;stroke-width:9.72"/>
	<line x1="709.43" y1="1697.46" x2="709.43" y2="1632.66" style="stroke:#F0F0F0;stroke-width:9.72"/>
	<line x1="709.43" y1="1600.26" x2="709.43" y2="1535.46" style="stroke:#F0F0F0;stroke-width:9.72"/>
	<line x1="709.43" y1="1503.06" x2="709.43" y2="1438.26" style="stroke:#F0F0F0;stroke-width:9.72"/>
	<line x1="709.43" y1="1405.86" x2="709.43" y2="1341.06" style="stroke:#F0F0F0;stroke-width:9.72"/>
	<line x1="709.43" y1="1308.66" x2="709.43" y2="1243.86" style="stroke:#F0F0F0;stroke-width:9.72"/>
	<line x1="709.43" y1="1211.46" x2="709.43" y2="1146.66" style="stroke:#F0F0F0;stroke-width:9.72"/>
	<line x1="709.43" y1="1114.26" x2="709.43" y2="1049.46" style="stroke:#F0F0F0;stroke-width:9.72"/>
	<line x1="709.43" y1="1017.06" x2="709.43" y2="952.26" style="stroke:#F0F0F0;stroke-width:9.72"/>
	<line x1="709.43" y1="919.86" x2="709.43" y2="855.06" style="stroke:#F0F0F0;stroke-width:9.72"/>
	<line x1="709.43" y1="822.66" x2="709.43" y2="757.86" style="stroke:#F0F0F0;stroke-width:9.72"/>
	<line x1="709.43" y1="725.46" x2="709.43" y2="660.66" style="stroke:#F0F0F0;stroke-width:9.72"/>
	<line x1="709.43" y1="628.26" x2="709.43" y2="563.46" style="stroke:#F0F0F0;stroke-width:9.72"/>
	<line x1="709.43" y1="531.06" x2="709.43" y2="466.26" style="stroke:#F0F0F0;stroke-width:9.72"/>
	<line x1="709.43" y1="433.86" x2="709.43" y2="369.06" style="stroke:#F0F0F0;stroke-width:9.72"/>
	<line x1="709.43" y1="336.66" x2="709.43" y2="271.86" style="stroke:#F0F0F0;stroke-width:9.72"/>
	<line x1="709.43" y1="239.46" x2="709.43" y2="174.66" style="stroke:#F0F0F0;stroke-width:9.72"/>
	<line x1="709.43" y1="142.26" x2="709.43" y2="113.40" style="stroke:#F0F0F0;stroke-width:9.72"/>
	<line x1="1230.69" y1="2766.66" x2="1230.69" y2="2701.86" style="stroke:#F0F0F0;stroke-width:9.72"/>
	<line x1="1230.69" y1="2669.46" x2="1230.69" y2="2604.66" style="stroke:#F0F0F0;stroke-width:9.72"/>
	<line x1="1230.69" y1="2572.26" x2="1230.69" y2="2507.46" style="stroke:#F0F0F0;stroke-width:9.72"/>
	<line x1="1230.69" y1="2475.06" x2="1230.69" y2="2410.26" style="stroke:#F0F0F0;stroke-width:9.72"/>
	<line x1="1230.69" y1="2377.86" x2="1230.69" y2="2313.06" style="stroke:#F0F0F0;stroke-width:9.72"/>
	<line x1="1230.69" y1="2280.66" x2="1230.69" y2="2215.86" style="stroke:#F0F0F0;stroke-width:9.72"/>
	<line x1="1230.69" y1="2183.46" x2="1230.69" y2="2118.66" style="stroke:#F0F0F0;stroke-width:9.72"/>
	<line x1="1230.69" y1="2086.26" x2="1230.69" y2="2021.46" style="stroke:#F0F0F0;stroke-width:9.72"/>
	<line x1="1230.69" y1="1989.06" x2="1230.69" y2="1924.26" style="stroke:#F0F0F0;stroke-width:9.72"/>
	<line x1="1230.69" y1="1891.86" x2="1230.69" y2="1827.06" style="stroke:#F0F0F0;stroke-width:9.72"/>
	<line x1="1230.69" y1="1794.66" x2="1230.69" y2="1729.86" style="stroke:#F0F0F0;stroke-width:9.72"/>
	<line x1="1230.69" y1="1697.46" x2="1230.69" y2="1632.66" style="stroke:#F0F0F0;stroke-width:9.72"/>
	<line x1="1230.69" y1="1600.26" x2="1230.69" y2="1535.46" style="stroke:#F0F0F0;stroke-width:9.72"/>
	<line x1="1230.69" y1="1503.06" x2="1230.69" y2="1438.26" style="stroke:#F0F0F0;stroke-width:9.72"/>
	<line x1="1230.69" y1="1405.86" x2="1230.69" y2="1341.06" style="stroke:#F0F0F0;stroke-width:9.72"/>
	<line x1="1230.69" y1="1308.66" x2="1230.69" y2="1243.86" style="stroke:#F0F0F0;stroke-width:9.72"/>
	<line x1="1230.69" y1="1211.46" x2="1230.69" y2="1146.66" style="stroke:#F0F0F0;stroke-width:9.72"/>
	<line x1="1230.69" y1="1114.26" x2="1230.69" y2="1049.46" style="stroke:#F0F0F0;stroke-width:9.72"/>
	<line x1="1230.69" y1="1017.06" x2="1230.69" y2="952.26" style="stroke:#F0F0F0;stroke-width:9.72"/>
	<line x1="1230.69" y1="919.86" x2="1230.69" y2="855.06" style="stroke:#F0F0F0;stroke-width:9.72"/>
	<line x1="1230.69" y1="822.66" x2="1230.69" y2="757.86" style="stroke:#F0F0F0;stroke-width:9.72"/>
	<line x1="1230.69" y1="725.46" x2="1230.69" y2="660.66" style="stroke:#F0F0F0;stroke-width:9.72"/>
	<line x1="1230.69" y1="628.26" x2="1230.69" y2="563.46" style="stroke:#F0F0F0;stroke-width:9.72"/>
	<line x1="1230.69" y1="531.06" x2="1230.69" y2="466.26" style="stroke:#F0F0F0;stroke-width:9.72"/>
	<line x1="1230.69" y1="433.86" x2="1230.69" y2="369.06" style="stroke:#F0F0F0;stroke-width:9.72"/>
	<line x1="1230.69" y1="336.66" x2="1230.69" y2="271.86" style="stroke:#F0F0F0;stroke-width:9.72"/>
	<line x1="1230.69" y1="239.46" x2="1230.69" y2="174.66" style="stroke:#F0F0F0;stroke-width:9.72"/>
	<line x1="1230.69" y1="142.26" x2="1230.69" y2="113.40" style="stroke:#F0F0F0;stroke-width:9.72"/>
	<line x1="1751.96" y1="2766.66" x2="1751.96" y2="2701.86" style="stroke:#F0F0F0;stroke-width:9.72"/>
	<line x1="1751.96" y1="2669.46" x2="1751.96" y2="2604.66" style="stroke:#F0F0F0;stroke-width:9.72"/>
	<line x1="1751.96" y1="2572.26" x2="1751.96" y2="2507.46" style="stroke:#F0F0F0;stroke-width:9.72"/>
	<line x1="1751.96" y1="2475.06" x2="1751.96" y2="2410.26" style="stroke:#F0F0F0;stroke-width:9.72"/>
	<line x1="1751.96" y1="2377.86" x2="1751.96" y2="2313.06" style="stroke:#F0F0F0;stroke-width:9.72"/>
	<line x1="1751.96" y1="2280.66" x2="1751.96" y2="2215.86" style="stroke:#F0F0F0;stroke-width:9.72"/>
	<line x1="1751.96" y1="2183.46" x2="1751.96" y2="2118.66" style="stroke:#F0F0F0;stroke-width:9.72"/>
	<line x1="1751.96" y1="2086.26" x2="1751.96" y2="2021.46" style="stroke:#F0F0F0;stroke-width:9.72"/>
	<line x1="1751.96" y1="1989.06" x2="1751.96" y2="1924.26" style="stroke:#F0F0F0;stroke-width:9.72"/>
	<line x1="1751.96" y1="1891.86" x2="1751.96" y2="1827.06" style="stroke:#F0F0F0;stroke-width:9.72"/>
	<line x1="1751.96" y1="1794.66" x2="1751.96" y2="1729.86" style="stroke:#F0F0F0;stroke-width:9.72"/>
	<line x1="1751.96" y1="1697.46" x2="1751.96" y2="1632.66" style="stroke:#F0F0F0;stroke-width:9.72"/>
	<line x1="1751.96" y1="1600.26" x2="1751.96" y2="1535.46" style="stroke:#F0F0F0;stroke-width:9.72"/>
	<line x1="1751.96" y1="1503.06" x2="1751.96" y2="1438.26" style="stroke:#F0F0F0;stroke-width:9.72"/>
	<line x1="1751.96" y1="1405.86" x2="1751.96" y2="1341.06" style="stroke:#F0F0F0;stroke-width:9.72"/>
	<line x1="1751.96" y1="1308.66" x2="1751.96" y2="1243.86" style="stroke:#F0F0F0;stroke-width:9.72"/>
	<line x1="1751.96" y1="1211.46" x2="1751.96" y2="1146.66" style="stroke:#F0F0F0;stroke-width:9.72"/>
	<line x1="1751.96" y1="1114.26" x2="1751.96" y2="1049.46" style="stroke:#F0F0F0;stroke-width:9.72"/>
	<line x1="1751.96" y1="1017.06" x2="1751.96" y2="952.26" style="stroke:#F0F0F0;stroke-width:9.72"/>
	<line x1="1751.96" y1="919.86" x2="1751.96" y2="855.06" style="stroke:#F0F0F0;stroke-width:9.72"/>
	<line x1="1751.96" y1="822.66" x2="1751.96" y2="757.86" style="stroke:#F0F0F0;stroke-width:9.72"/>
	<line x1="1751.96" y1="725.46" x2="1751.96" y2="660.66" style="stroke:#F0F0F0;stroke-width:9.72"/>
	<line x1="1751.96" y1="628.26" x2="1751.96" y2="563.46" style="stroke:#F0F0F0;stroke-width:9.72"/>
	<line x1="1751.96" y1="531.06" x2="1751.96" y2="466.26" style="stroke:#F0F0F0;stroke-width:9.72"/>
	<line x1="1751.96" y1="433.86" x2="1751.96" y2="369.06" style="stroke:#F0F0F0;stroke-width:9.72"/>
	<line x1="1751.96" y1="336.66" x2="1751.96" y2="271.86" style="stroke:#F0F0F0;stroke-width:9.72"/>
	<line x1="1751.96" y1="239.46" x2="1751.96" y2="174.66" style="stroke:#F0F0F0;stroke-width:9.72"/>
	<line x1="1751.96" y1="142.26" x2="1751.96" y2="113.40" style="stroke:#F0F0F0;stroke-width:9.72"/>
	<line x1="2273.23" y1="2766.66" x2="2273.23" y2="2701.86" style="stroke:#F0F0F0;stroke-width:9.72"/>
	<line x1="2273.23" y1="2669.46" x2="2273.23" y2="2604.66" style="stroke:#F0F0F0;stroke-width:9.72"/>
	<line x1="2273.23" y1="2572.26" x2="2273.23" y2="2507.46" style="stroke:#F0F0F0;stroke-width:9.72"/>
	<line x1="2273.23" y1="2475.06" x2="2273.23" y2="2410.26" style="stroke:#F0F0F0;stroke-width:9.72"/>
	<line x1="2273.23" y1="2377.86" x2="2273.23" y2="2313.06" style="stroke:#F0F0F0;stroke-width:9.72"/>
	<line x1="2273.23" y1="2280.66" x2="2273.23" y2="2215.86" style="stroke:#F0F0F0;stroke-width:9.72"/>
	<line x1="2273.23" y1="2183.46" x2="2273.23" y2="2118.66" style="stroke:#F0F0F0;stroke-width:9.72"/>
	<line x1="2273.23" y1="2086.26" x2="2273.23" y2="2021.46" style="stroke:#F0F0F0;stroke-width:9.72"/>
	<line x1="2273.23" y1="1989.06" x2="2273.23" y2="1924.26" style="stroke:#F0F0F0;stroke-width:9.72"/>
	<line x1="2273.23" y1="1891.86" x2="2273.23" y2="1827.06" style="stroke:#F0F0F0;stroke-width:9.72"/>
	<line x1="2273.23" y1="1794.66" x2="2273.23" y2="1729.86" style="stroke:#F0F0F0;stroke-width:9.72"/>
	<line x1="2273.23" y1="1697.46" x2="2273.23" y2="1632.66" style="stroke:#F0F0F0;stroke-width:9.72"/>
	<line x1="2273.23" y1="1600.26" x2="2273.23" y2="1535.46" style="stroke:#F0F0F0;stroke-width:9.72"/>
	<line x1="2273.23" y1="1503.06" x2="2273.23" y2="1438.26" style="stroke:#F0F0F0;stroke-width:9.72"/>
	<line x1="2273.23" y1="1405.86" x2="2273.23" y2="1341.06" style="stroke:#F0F0F0;stroke-width:9.72"/>
	<line x1="2273.23" y1="1308.66" x2="2273.23" y2="1243.86" style="stroke:#F0F0F0;stroke-width:9.72"/>
	<line x1="2273.23" y1="1211.46" x2="2273.23" y2="1146.66" style="stroke:#F0F0F0;stroke-width:9.72"/>
	<line x1="2273.23" y1="1114.26" x2="2273.23" y2="1049.46" style="stroke:#F0F0F0;stroke-width:9.72"/>
	<line x1="2273.23" y1="1017.06" x2="2273.23" y2="952.26" style="stroke:#F0F0F0;stroke-width:9.72"/>
	<line x1="2273.23" y1="919.86" x2="2273.23" y2="855.06" style="stroke:#F0F0F0;stroke-width:9.72"/>
	<line x1="2273.23" y1="822.66" x2="2273.23" y2="757.86" style="stroke:#F0F0F0;stroke-width:9.72"/>
	<line x1="2273.23" y1="725.46" x2="2273.23" y2="660.66" style="stroke:#F0F0F0;stroke-width:9.72"/>
	<line x1="2273.23" y1="628.26" x2="2273.23" y2="563.46" style="stroke:#F0F0F0;stroke-width:9.72"/>
	<line x1="2273.23" y1="531.06" x2="2273.23" y2="466.26" style="stroke:#F0F0F0;stroke-width:9.72"/>
	<line x1="2273.23" y1="433.86" x2="2273.23" y2="369.06" style="stroke:#F0F0F0;stroke-width:9.72"/>
	<line x1="2273.23" y1="336.66" x2="2273.23" y2="271.86" style="stroke:#F0F0F0;stroke-width:9.72"/>
	<line x1="2273.23" y1="239.46" x2="2273.23" y2="174.66" style="stroke:#F0F0F0;stroke-width:9.72"/>
	<line x1="2273.23" y1="142.26" x2="2273.23" y2="113.40" style="stroke:#F0F0F0;stroke-width:9.72"/>
	<line x1="2794.50" y1="2766.66" x2="2794.50" y2="2701.86" style="stroke:#F0F0F0;stroke-width:9.72"/>
	<line x1="2794.50" y1="2669.46" x2="2794.50" y2="2604.66" style="stroke:#F0F0F0;stroke-width:9.72"/>
	<line x1="2794.50" y1="2572.26" x2="2794.50" y2="2507.46" style="stroke:#F0F0F0;stroke-width:9.72"/>
	<line x1="2794.50" y1="2475.06" x2="2794.50" y2="2410.26" style="stroke:#F0F0F0;stroke-width:9.72"/>
	<line x1="2794.50" y1="2377.86" x2="2794.50" y2="2313.06" style="stroke:#F0F0F0;stroke-width:9.72"/>
	<line x1="2794.50" y1="2280.66" x2="2794.50" y2="2215.86" style="stroke:#F0F0F0;stroke-width:9.72"/>
	<line x1="2794.50" y1="2183.46" x2="2794.50" y2="2118.66" style="stroke:#F0F0F0;stroke-width:9.72"/>
	<line x1="2794.50" y1="2086.26" x2="2794.50" y2="2021.46" style="stroke:#F0F0F0;stroke-width:9.72"/>
	<line x1="2794.50" y1="1989.06" x2="2794.50" y2="1924.26" style="stroke:#F0F0F0;stroke-width:9.72"/>
	<line x1="2794.50" y1="1891.86" x2="2794.50" y2="1827.06" style="stroke:#F0F0F0;stroke-width:9.72"/>
	<line x1="2794.50" y1="1794.66" x2="2794.50" y2="1729.86" style="stroke:#F0F0F0;stroke-width:9.72"/>
	<line x1="2794.50" y1="1697.46" x2="2794.50" y2="1632.66" style="stroke:#F0F0F0;stroke-width:9.72"/>
	<line x1="2794.50" y1="1600.26" x2="2794.50" y2="1535.46" style="stroke:#F0F0F0;stroke-width:9.72"/>
	<line x1="2794.50" y1="1503.06" x2="2794.50" y2="1438.26" style="stroke:#F0F0F0;stroke-width:9.72"/>
	<line x1="2794.50" y1="1405.86" x2="2794.50" y2="1341.06" style="stroke:#F0F0F0;stroke-width:9.72"/>
	<line x1="2794.50" y1="1308.66" x2="2794.50" y2="1243.86" style="stroke:#F0F0F0;stroke-width:9.72"/>
	<line x1="2794.50" y1="1211.46" x2="2794.50" y2="1146.66" style="stroke:#F0F0F0;stroke-width:9.72"/>
	<line x1="2794.50" y1="1114.26" x2="2794.50" y2="1049.46" style="stroke:#F0F0F0;stroke-width:9.72"/>
	<line x1="2794.50" y1="1017.06" x2="2794.50" y2="952.26" style="stroke:#F0F0F0;stroke-width:9.72"/>
	<line x1="2794.50" y1="919.86" x2="2794.50" y2="855.06" style="stroke:#F0F0F0;stroke-width:9.72"/>
	<line x1="2794.50" y1="822.66" x2="2794.50" y2="757.86" style="stroke:#F0F0F0;stroke-width:9.72"/>
	<line x1="2794.50" y1="725.46" x2="2794.50" y2="660.66" style="stroke:#F0F0F0;stroke-width:9.72"/>
	<line x1="2794.50" y1="628.26" x2="2794.50" y2="563.46" style="stroke:#F0F0F0;stroke-width:9.72"/>
	<line x1="2794.50" y1="531.06" x2="2794.50" y2="466.26" style="stroke:#F0F0F0;stroke-width:9.72"/>
	<line x1="2794.50" y1="433.86" x2="2794.50" y2="369.06" style="stroke:#F0F0F0;stroke-width:9.72"/>
	<line x1="2794.50" y1="336.66" x2="2794.50" y2="271.86" style="stroke:#F0F0F0;stroke-width:9.72"/>
	<line x1="2794.50" y1="239.46" x2="2794.50" y2="174.66" style="stroke:#F0F0F0;stroke-width:9.72"/>
	<line x1="2794.50" y1="142.26" x2="2794.50" y2="113.40" style="stroke:#F0F0F0;stroke-width:9.72"/>
	<line x1="3315.94" y1="2766.66" x2="3315.94" y2="2701.86" style="stroke:#F0F0F0;stroke-width:9.72"/>
	<line x1="3315.94" y1="2669.46" x2="3315.94" y2="2604.66" style="stroke:#F0F0F0;stroke-width:9.72"/>
	<line x1="3315.94" y1="2572.26" x2="3315.94" y2="2507.46" style="stroke:#F0F0F0;stroke-width:9.72"/>
	<line x1="3315.94" y1="2475.06" x2="3315.94" y2="2410.26" style="stroke:#F0F0F0;stroke-width:9.72"/>
	<line x1="3315.94" y1="2377.86" x2="3315.94" y2="2313.06" style="stroke:#F0F0F0;stroke-width:9.72"/>
	<line x1="3315.94" y1="2280.66" x2="3315.94" y2="2215.86" style="stroke:#F0F0F0;stroke-width:9.72"/>
	<line x1="3315.94" y1="2183.46" x2="3315.94" y2="2118.66" style="stroke:#F0F0F0;stroke-width:9.72"/>
	<line x1="3315.94" y1="2086.26" x2="3315.94" y2="2021.46" style="stroke:#F0F0F0;stroke-width:9.72"/>
	<line x1="3315.94" y1="1989.06" x2="3315.94" y2="1924.26" style="stroke:#F0F0F0;stroke-width:9.72"/>
	<line x1="3315.94" y1="1891.86" x2="3315.94" y2="1827.06" style="stroke:#F0F0F0;stroke-width:9.72"/>
	<line x1="3315.94" y1="1794.66" x2="3315.94" y2="1729.86" style="stroke:#F0F0F0;stroke-width:9.72"/>
	<line x1="3315.94" y1="1697.46" x2="3315.94" y2="1632.66" style="stroke:#F0F0F0;stroke-width:9.72"/>
	<line x1="3315.94" y1="1600.26" x2="3315.94" y2="1535.46" style="stroke:#F0F0F0;stroke-width:9.72"/>
	<line x1="3315.94" y1="1503.06" x2="3315.94" y2="1438.26" style="stroke:#F0F0F0;stroke-width:9.72"/>
	<line x1="3315.94" y1="1405.86" x2="3315.94" y2="1341.06" style="stroke:#F0F0F0;stroke-width:9.72"/>
	<line x1="3315.94" y1="1308.66" x2="3315.94" y2="1243.86" style="stroke:#F0F0F0;stroke-width:9.72"/>
	<line x1="3315.94" y1="1211.46" x2="3315.94" y2="1146.66" style="stroke:#F0F0F0;stroke-width:9.72"/>
	<line x1="3315.94" y1="1114.26" x2="3315.94" y2="1049.46" style="stroke:#F0F0F0;stroke-width:9.72"/>
	<line x1="3315.94" y1="1017.06" x2="3315.94" y2="952.26" style="stroke:#F0F0F0;stroke-width:9.72"/>
	<line x1="3315.94" y1="919.86" x2="3315.94" y2="855.06" style="stroke:#F0F0F0;stroke-width:9.72"/>
	<line x1="3315.94" y1="822.66" x2="3315.94" y2="757.86" style="stroke:#F0F0F0;stroke-width:9.72"/>
	<line x1="3315.94" y1="725.46" x2="3315.94" y2="660.66" style="stroke:#F0F0F0;stroke-width:9.72"/>
	<line x1="3315.94" y1="628.26" x2="3315.94" y2="563.46" style="stroke:#F0F0F0;stroke-width:9.72"/>
	<line x1="3315.94" y1="531.06" x2="3315.94" y2="466.26" style="stroke:#F0F0F0;stroke-width:9.72"/>
	<line x1="3315.94" y1="433.86" x2="3315.94" y2="369.06" style="stroke:#F0F0F0;stroke-width:9.72"/>
	<line x1="3315.94" y1="336.66" x2="3315.94" y2="271.86" style="stroke:#F0F0F0;stroke-width:9.72"/>
	<line x1="3315.94" y1="239.46" x2="3315.94" y2="174.66" style="stroke:#F0F0F0;stroke-width:9.72"/>
	<line x1="3315.94" y1="142.26" x2="3315.94" y2="113.40" style="stroke:#F0F0F0;stroke-width:9.72"/>
	<rect x="1407.21" y="1939.95" width="361.97" height="826.71" style="fill:#FF8C19;fill-opacity:0.40"/>
	<rect x="1409.64" y="1942.38" width="357.11" height="821.85" style="fill:none;stroke:#5FAAFF;stroke-width:4.86"/>
	<rect x="1769.18" y="286.88" width="361.80" height="2479.78" style="fill:#FF8C19;fill-opacity:0.40"/>
	<rect x="1771.61" y="289.31" width="356.94" height="2474.92" style="fill:none;stroke:#5FAAFF;stroke-width:4.86"/>
	<rect x="2130.98" y="906.69" width="361.80" height="1859.96" style="fill:#FF8C19;fill-opacity:0.40"/>
	<rect x="2133.40" y="909.12" width="356.94" height="1855.10" style="fill:none;stroke:#5FAAFF;stroke-width:4.86"/>
	<rect x="2492.78" y="1939.95" width="361.80" height="826.71" style="fill:#FF8C19;fill-opacity:0.40"/>
	<rect x="2495.21" y="1942.38" width="356.94" height="821.85" style="fill:none;stroke:#5FAAFF;stroke-width:4.86"/>
	<rect x="2854.58" y="2559.94" width="361.97" height="206.72" style="fill:#FF8C19;fill-opacity:0.40"/>
	<rect x="2857.00" y="2562.37" width="357.11" height="201.86" style="fill:none;stroke:#5FAAFF;stroke-width:4.86"/>
	<path d=" M1407.21 2391.36 L1413.28 2379.54 L1419.19 2367.56 L1425.26 2355.24 L1431.34 2342.59 L1437.41 2329.76 L1443.49 2316.77 L1449.56 2303.27 L1455.64 2289.60 L1461.54 2275.76 L1467.62 2261.42 L1473.69 2247.07 L1479.77 2232.23 L1485.84 2217.21 L1491.92 2201.85 L1497.99 2186.32 L1503.90 2170.46 L1509.98 2154.26 L1516.05 2137.89 L1522.13 2121.19 L1528.20 2104.14 L1534.28 2086.93 L1540.35 2069.38 L1546.26 2051.66 L1552.33 2033.61 L1558.41 2015.38 L1564.48 1996.82 L1570.56 1978.09 L1576.63 1959.02 L1582.71 1939.61 L1588.61 1920.21 L1594.69 1900.46 L1600.76 1880.38 L1606.84 1860.13 L1612.91 1839.71 L1618.99 1819.13 L1625.06 1798.20 L1630.97 1777.11 L1637.04 1755.84 L1643.12 1734.41 L1649.19 1712.81 L1655.27 1691.04 L1661.34 1668.94 L1667.42 1646.83 L1673.33 1624.56 L1679.40 1602.11 L1685.48 1579.67 L1691.55 1556.89 L1697.63 1534.11 L1703.70 1511.33 L1709.78 1488.38 L1715.68 1465.26 L1721.76 1442.14 L1727.83 1418.85 L1733.91 1395.73 L1739.98 1372.44 L1746.06 1349.16 L1752.13 1325.70 L1758.04 1302.41 L1764.11 1279.13 L1770.19 1255.84 L1776.26 1232.55 L1782.34 1209.26 L1788.41 1186.14 L1794.49 1163.03 L1800.39 1140.07 L1806.47 1117.29 L1812.54 1094.51 L1818.62 1071.73 L1824.69 1049.29 L1830.77 1026.84 L1836.84 1004.74 L1842.75 982.63 L1848.83 960.86 L1854.90 939.26 L1860.98 917.83 L1867.05 896.74 L1873.13 875.81 L1879.20 855.06 L1885.11 834.81 L1891.18 814.72 L1897.26 794.98 L1903.33 775.41 L1909.41 756.34 L1915.48 737.61 L1921.56 719.21 L1927.46 701.16 L1933.54 683.44 L1939.61 666.22 L1945.69 649.35 L1951.76 632.81 L1957.84 616.78 L1963.91 601.26 L1969.82 586.07 L1975.89 571.56 L1981.97 557.38 L1988.04 543.54 L1994.12 530.38 L2000.19 517.72 L2006.27 505.57 L2012.18 493.93 L2018.25 482.79 L2024.33 472.16 L2030.40 462.21 L2036.48 452.76 L2042.55 443.81 L2048.63 435.54 L2054.53 427.78 L2060.61 420.69 L2066.68 414.11 L2072.76 408.04 L2078.83 402.64 L2084.91 397.91 L2090.98 393.86 L2096.89 390.15 L2102.96 387.28 L2109.04 384.92 L2115.11 383.23 L2121.19 382.22 L2127.26 381.71 L2133.34 381.88 L2139.24 382.56 L2145.32 384.07 L2151.39 386.10 L2157.47 388.63 L2163.54 391.84 L2169.62 395.72 L2175.69 400.28 L2181.60 405.34 L2187.68 410.91 L2193.75 417.15 L2199.82 424.07 L2205.90 431.49 L2211.98 439.59 L2218.05 448.20 L2223.96 457.31 L2230.03 467.10 L2236.11 477.39 L2242.18 488.19 L2248.26 499.50 L2254.33 511.48 L2260.41 523.97 L2266.31 536.79 L2272.39 550.29 L2278.46 564.30 L2284.54 578.64 L2290.61 593.49 L2296.69 608.85 L2302.76 624.71 L2308.67 640.91 L2314.74 657.45 L2320.82 674.66 L2326.89 692.04 L2332.97 709.93 L2339.04 728.16 L2345.12 746.72 L2351.03 765.79 L2357.10 785.03 L2363.18 804.60 L2369.25 824.51 L2375.32 844.76 L2381.40 865.18 L2387.48 886.11 L2393.38 907.03 L2399.46 928.29 L2405.53 949.89 L2411.61 971.49 L2417.68 993.43 L2423.76 1015.54 L2429.83 1037.81 L2435.74 1060.26 L2441.81 1082.87 L2447.89 1105.65 L2453.96 1128.43 L2460.04 1151.38 L2466.11 1174.50 L2472.19 1197.62 L2478.09 1220.74 L2484.17 1244.03 L2490.24 1267.31 L2496.32 1290.60 L2502.39 1313.89 L2508.47 1337.18 L2514.54 1360.63 L2520.45 1383.92 L2526.53 1407.04 L2532.60 1430.33 L2538.68 1453.44 L2544.75 1476.56 L2550.82 1499.68 L2556.90 1522.63 L2562.81 1545.41 L2568.88 1568.19 L2574.96 1590.81 L2581.03 1613.25 L2587.11 1635.53 L2593.18 1657.80 L2599.26 1679.91 L2605.16 1701.68 L2611.24 1723.44 L2617.31 1745.04 L2623.39 1766.31 L2629.46 1787.57 L2635.54 1808.49 L2641.61 1829.25 L2647.52 1849.84 L2653.59 1870.09 L2659.67 1890.34 L2665.74 1910.08 L2671.82 1929.83 L2677.89 1949.23 L2683.97 1968.30 L2689.88 1987.37 L2695.95 2005.93 L2702.03 2024.33 L2708.10 2042.55 L2714.18 2060.44 L2720.25 2078.16 L2726.33 2095.37 L2732.23 2112.58 L2738.31 2129.46 L2744.38 2145.99 L2750.46 2162.19 L2756.53 2178.23 L2762.61 2193.92 L2768.68 2209.44 L2774.59 2224.63 L2780.66 2239.48 L2786.74 2254.16 L2792.81 2268.51 L2798.89 2282.68 L2804.96 2296.35 L2811.04 2310.02 L2816.94 2323.18 L2823.02 2336.18 L2829.09 2348.83 L2835.17 2361.32 L2841.24 2373.47 L2847.32 2385.45 L2853.39 2397.09 L2859.30 2408.40 L2865.38 2419.54 L2871.45 2430.34 L2877.53 2440.97 L2883.60 2451.43 L2889.68 2461.56 L2895.75 2471.34 L2901.66 2480.96 L2907.73 2490.24 L2913.81 2499.53 L2919.88 2508.30 L2925.96 2517.07 L2932.03 2525.51 L2938.11 2533.61 L2944.01 2541.71 L2950.09 2549.48 L2956.16 2557.07 L2962.24 2564.32 L2968.31 2571.58 L2974.39 2578.50 L2980.46 2585.25 L2986.37 2591.66 L2992.44 2598.07 L2998.52 2604.32 L3004.59 2610.23 L3010.67 2615.96 L3016.74 2621.70 L3022.82 2627.10 L3028.73 2632.33 L3034.80 2637.56 L3040.88 2642.46 L3046.95 2647.18 L3053.03 2651.91 L3059.10 2656.29 L3065.18 2660.68 L3071.08 2664.90 L3077.16 2668.95 L3083.23 2672.83 L3089.31 2676.71 L3095.38 2680.26 L3101.46 2683.80 L3107.53 2687.18 L3113.44 2690.55 L3119.51 2693.76 L3125.59 2696.79 L3131.66 2699.66 L3137.74 2702.53 L3143.81 2705.23 L3149.89 2707.93 L3155.79 2710.46 L3161.87 2712.83 L3167.94 2715.19 L3174.02 2717.38 L3180.09 2719.58 L3186.17 2721.77 L3192.24 2723.63 L3198.15 2725.65 L3204.23 2727.51 L3210.30 2729.19 L3216.38 2730.88" stroke-linejoin="round" style="fill:none;stroke:#000000;stroke-width:9.72"/>
	<rect x="629.10" y="2603.31" width="457.82" height="163.35" style="fill:#198DFF;fill-opacity:0.50"/>
	<rect x="631.53" y="2605.74" width="452.96" height="158.49" style="fill:none;stroke:#5FAAFF;stroke-width:4.86"/>
	<rect x="1086.92" y="1786.89" width="457.99" height="979.76" style="fill:#198DFF;fill-opacity:0.50"/>
	<rect x="1089.35" y="1789.32" width="453.13" height="974.90" style="fill:none;stroke:#5FAAFF;stroke-width:4.86"/>
	<rect x="1544.91" y="807.13" width="457.99" height="1959.53" style="fill:#198DFF;fill-opacity:0.50"/>
	<rect x="1547.34" y="809.56" width="453.13" height="1954.67" style="fill:none;stroke:#5FAAFF;stroke-width:4.86"/>
	<rect x="2002.89" y="1297.01" width="457.82" height="1469.64" style="fill:#198DFF;fill-opacity:0.50"/>
	<rect x="2005.32" y="1299.44" width="452.96" height="1464.78" style="fill:none;stroke:#5FAAFF;stroke-width:4.86"/>
	<rect x="2460.71" y="2439.96" width="457.99" height="326.70" style="fill:#198DFF;fill-opacity:0.50"/>
	<rect x="2463.14" y="2442.39" width="453.13" height="321.84" style="fill:none;stroke:#5FAAFF;stroke-width:4.86"/>
	<line x1="557.72" y1="2766.66" x2="557.72" y2="113.40" style="stroke:#000000;stroke-width:6.48"/>
	<line x1="557.72" y1="2766.66" x2="512.83" y2="2766.66" style="stroke:#000000;stroke-width:6.48"/>
	<text x="490.22" y="2806.09" style="font-family:'Helvetica';font-size:112.56px;fill:#000000" text-anchor="end">0</text>
	<line x1="557.72" y1="1906.03" x2="512.83" y2="1906.03" style="stroke:#000000;stroke-width:6.48"/>
	<text x="490.22" y="1945.47" style="font-family:'Helvetica';font-size:112.56px;fill:#000000" text-anchor="end">.01</text>
	<line x1="557.72" y1="1045.41" x2="512.83" y2="1045.41" style="stroke:#000000;stroke-width:6.48"/>
	<text x="490.22" y="1084.84" style="font-family:'Helvetica';font-size:112.56px;fill:#000000" text-anchor="end">.02</text>
	<line x1="557.72" y1="184.61" x2="512.83" y2="184.61" style="stroke:#000000;stroke-width:6.48"/>
	<text x="490.22" y="224.05" style="font-family:'Helvetica';font-size:112.56px;fill:#000000" text-anchor="end">.03</text>
	<text x="214.55" y="1439.94" style="font-family:'Helvetica';font-size:112.56px;fill:#000000" transform="rotate(-90 214.55,1439.94)" text-anchor="middle">Density</text>
	<line x1="557.72" y1="2766.66" x2="3387.15" y2="2766.66" style="stroke:#000000;stroke-width:6.48"/>
	<line x1="709.43" y1="2766.66" x2="709.43" y2="2811.54" style="stroke:#000000;stroke-width:6.48"/>
	<text x="709.43" y="2912.86" style="font-family:'Helvetica';font-size:112.56px;fill:#000000" text-anchor="middle">0</text>
	<line x1="1230.69" y1="2766.66" x2="1230.69" y2="2811.54" style="stroke:#000000;stroke-width:6.48"/>
	<text x="1230.69" y="2912.86" style="font-family:'Helvetica';font-size:112.56px;fill:#000000" text-anchor="middle">20</text>
	<line x1="1751.96" y1="2766.66" x2="1751.96" y2="2811.54" style="stroke:#000000;stroke-width:6.48"/>
	<text x="1751.96" y="2912.86" style="font-family:'Helvetica';font-size:112.56px;fill:#000000" text-anchor="middle">40</text>
	<line x1="2273.23" y1="2766.66" x2="2273.23" y2="2811.54" style="stroke:#000000;stroke-width:6.48"/>
	<text x="2273.23" y="2912.86" style="font-family:'Helvetica';font-size:112.56px;fill:#000000" text-anchor="middle">60</text>
	<line x1="2794.50" y1="2766.66" x2="2794.50" y2="2811.54" style="stroke:#000000;stroke-width:6.48"/>
	<text x="2794.50" y="2912.86" style="font-family:'Helvetica';font-size:112.56px;fill:#000000" text-anchor="middle">80</text>
	<line x1="3315.94" y1="2766.66" x2="3315.94" y2="2811.54" style="stroke:#000000;stroke-width:6.48"/>
	<text x="3315.94" y="2912.86" style="font-family:'Helvetica';font-size:112.56px;fill:#000000" text-anchor="middle">100</text>
	<text x="1972.52" y="3070.31" style="font-family:'Helvetica';font-size:112.56px;fill:#000000" text-anchor="middle">age</text>
	<rect x="3425.96" y="1177.71" width="1821.83" height="524.64" style="fill:#FFFFFF"/>
	<rect x="3429.20" y="1180.95" width="1815.35" height="518.16" style="fill:none;stroke:#FFFFFF;stroke-width:6.48"/>
	<rect x="3474.56" y="1226.31" width="259.20" height="112.39" style="fill:#FF8C19;fill-opacity:0.40"/>
	<rect x="3476.99" y="1228.74" width="254.34" height="107.53" style="fill:none;stroke:#5FAAFF;stroke-width:4.86"/>
	<line x1="3474.56" y1="1439.94" x2="3733.76" y2="1439.94" style="stroke:#000000;stroke-width:9.72"/>
	<rect x="3474.56" y="1541.19" width="259.20" height="112.56" style="fill:#198DFF;fill-opacity:0.50"/>
	<rect x="3476.99" y="1543.62" width="254.34" height="107.70" style="fill:none;stroke:#5FAAFF;stroke-width:4.86"/>
	<text x="3801.26" y="1321.94" style="font-family:'Helvetica';font-size:112.56px;fill:#000000">Sampled from Normal</text>
	<text x="3801.26" y="1479.38" style="font-family:'Helvetica';font-size:112.56px;fill:#000000">Theoretical Normal</text>
	<text x="3801.26" y="1636.99" style="font-family:'Helvetica';font-size:112.56px;fill:#000000">Sampled from t-distribution</text>
</svg>
